<svg width="50" height="42" viewBox="0 0 50 42" fill="none" xmlns="http://www.w3.org/2000/svg">
<path d="M19.9826 9.08862C20.2306 9.45093 20.3816 9.88879 20.4356 10.4022C20.4896 10.9156 20.4225 11.4155 20.2345 11.902L12.1954 12.2011C11.8824 12.2067 11.462 12.2053 10.934 12.197C10.4151 12.1929 10.0236 12.1887 9.75968 12.1846L9.67562 12.3605C9.84908 12.5542 10.1004 12.8516 10.4297 13.2527C10.7723 13.6491 11.0376 13.9753 11.2256 14.2313L16.0448 20.6727C15.7799 21.1113 15.4219 21.4778 14.971 21.7722C14.5244 22.0576 14.0958 22.2241 13.6851 22.2717L6.31482 12.0185C6.38407 11.6415 6.50665 11.2457 6.68257 10.831C6.86751 10.4207 7.10053 10.0721 7.38163 9.7852L19.9826 9.08862ZM33.7634 10.5183C34.1565 10.7393 34.5308 11.0345 34.8864 11.4038C35.2552 11.7684 35.5441 12.1613 35.753 12.5825L16.3697 31.2009C15.9809 30.9709 15.6065 30.6757 15.2467 30.3154C14.8868 29.9551 14.5956 29.5556 14.373 29.1168L33.7634 10.5183ZM31.1211 30.5509C30.8911 30.1972 30.7446 29.7615 30.6816 29.2438C30.6276 28.7303 30.6902 28.2283 30.8692 27.7375L38.9282 27.4313C39.2455 27.4167 39.6615 27.4159 40.1761 27.429C40.6951 27.4331 41.0889 27.4439 41.3575 27.4614L41.4416 27.2854C41.2634 27.0784 41.0076 26.7789 40.674 26.3868C40.3447 25.9857 40.0839 25.6616 39.8916 25.4146L35.0589 18.9668C35.3371 18.5235 35.6951 18.1569 36.1327 17.8673C36.5793 17.5819 37.0124 17.4176 37.4321 17.3742L44.8159 27.6339C44.742 27.9976 44.6104 28.3891 44.4211 28.8085C44.2452 29.2231 44.0212 29.5761 43.7491 29.8672L31.1211 30.5509Z" fill="white" fill-opacity="0.2"/>
</svg>