<svg width="140" height="70" viewBox="0 0 140 70" fill="none" xmlns="http://www.w3.org/2000/svg">
<line x1="35.1025" y1="20.5721" x2="75.6831" y2="1.09852" stroke="white" stroke-opacity="0.2" stroke-width="2"/>
<line x1="63.1543" y1="55.9146" x2="92.0044" y2="42.0702" stroke="white" stroke-opacity="0.2" stroke-width="2"/>
<line x1="43.9702" y1="52.9197" x2="72.8204" y2="39.0753" stroke="white" stroke-opacity="0.2" stroke-width="2"/>
<line x1="78.2297" y1="36.4795" x2="87.2454" y2="32.1531" stroke="white" stroke-opacity="0.2" stroke-width="2"/>
<line x1="59.0456" y1="33.4844" x2="87.8958" y2="19.64" stroke="white" stroke-opacity="0.2" stroke-width="2"/>
<line x1="44.6206" y1="40.4065" x2="53.6363" y2="36.0802" stroke="white" stroke-opacity="0.2" stroke-width="2"/>
<line x1="93.3052" y1="17.044" x2="105.959" y2="10.9716" stroke="white" stroke-opacity="0.2" stroke-width="2"/>
<line x1="39.8616" y1="30.4893" x2="58.7945" y2="21.4039" stroke="white" stroke-opacity="0.2" stroke-width="2"/>
<line x1="77.7273" y1="12.3184" x2="96.6602" y2="3.23299" stroke="white" stroke-opacity="0.2" stroke-width="2"/>
<line x1="63.3022" y1="19.2408" x2="72.3179" y2="14.9144" stroke="white" stroke-opacity="0.2" stroke-width="2"/>
<path fill-rule="evenodd" clip-rule="evenodd" d="M31.862 29.493L18.4058 27.3014L25.6042 15.7232L23.4991 14.4144L14.3374 29.1503L31.4635 31.9395L31.862 29.493Z" fill="white" fill-opacity="0.15"/>
<path fill-rule="evenodd" clip-rule="evenodd" d="M102.784 47.7936L113.951 39.973L102.437 32.6726L103.765 30.5791L118.419 39.8705L104.206 49.824L102.784 47.7936Z" fill="white" fill-opacity="0.15"/>
</svg>
