<svg width="79" height="229" viewBox="0 0 79 229" fill="none" xmlns="http://www.w3.org/2000/svg">
<g id="plunt">
<path id="Vector_66" d="M58.6611 22.5285C58.6611 22.5285 58.6611 17.6379 51.8117 10.7774C44.9623 3.917 40.5091 0 40.5091 0C40.5091 0 37.1183 11.3208 43.4365 18.1134C48.1144 22.9381 53.1883 27.3612 58.6046 31.3361L58.6611 22.5285V22.5285Z" fill="#1DBD9C"/>
<path id="Vector_67" d="M48.726 53.1624C48.726 53.1624 48.726 48.2605 41.8766 41.4C35.0272 34.5396 30.5853 30.6226 30.5853 30.6226C30.5853 30.6226 27.1944 41.9434 33.5126 48.7359C38.1944 53.5566 43.2679 57.9794 48.6808 61.9587L48.726 53.1624V53.1624Z" fill="#1DBD9C"/>
<path id="Vector_68" d="M58.2315 30.9057C58.2315 30.9057 58.7514 26.0378 66.279 19.9472C73.8066 13.8566 78.5989 10.415 78.5989 10.415C78.5989 10.415 80.8594 21.9849 73.7727 28.1322C68.6152 32.4355 63.1066 36.2981 57.3047 39.6794L58.2315 30.9057V30.9057Z" fill="#1DBD9C"/>
<path id="Vector_69" d="M46.2281 67.0421C46.2281 67.0421 47.2454 62.2534 55.3833 56.9892C63.5212 51.725 68.63 48.8042 68.63 48.8042C68.63 48.8042 69.6247 60.5439 61.9728 65.91C56.3896 69.6504 50.5029 72.9147 44.3745 75.6686L46.2281 67.0421Z" fill="#1DBD9C"/>
<path id="Vector_70" d="M48.4775 106.439C48.4775 106.439 48.4775 101.537 55.3269 94.6764C62.1764 87.816 66.6296 83.8989 66.6296 83.8989C66.6296 83.8989 70.0204 95.2198 63.7022 102.012C59.0225 106.839 53.9488 111.265 48.5341 115.246L48.4775 106.439V106.439Z" fill="#1DBD9C"/>
<path id="Vector_71" d="M48.3642 116.05C48.3642 116.05 49.065 111.204 43.2555 103.438C37.4459 95.6722 33.6482 91.1665 33.6482 91.1665C33.6482 91.1665 28.6637 101.842 33.9873 109.529C37.9281 114.974 42.3216 120.075 47.121 124.778L48.3642 116.05Z" fill="#1DBD9C"/>
<path id="Vector_72" d="M41.6167 144.556C41.6167 144.556 41.6167 139.654 48.4661 132.794C55.3155 125.933 59.7688 122.016 59.7688 122.016C59.7688 122.016 63.1596 133.28 56.8301 140.129C52.1574 144.956 47.0872 149.379 41.6732 153.352L41.6167 144.556Z" fill="#1DBD9C"/>
<path id="Vector_73" d="M46.1828 170.39C46.1828 170.39 44.9508 165.647 49.7997 157.247C54.6485 148.847 57.9602 143.967 57.9602 143.967C57.9602 143.967 64.1202 153.998 59.7121 162.239C56.4153 168.093 52.6345 173.66 48.4095 178.881L46.1828 170.39Z" fill="#1DBD9C"/>
<path id="Vector_74" d="M59.2827 21.3169C58.9335 26.4152 58.3072 31.4908 57.4064 36.5208C54.6938 50.5247 47.9348 59.5701 45.2222 72.2154C42.5095 84.8608 50.2858 101.174 48.2061 117.42C46.1264 133.665 39.8082 142.71 41.6166 153.556C43.4251 164.401 52.9193 193.767 52.9193 193.767" stroke="white" stroke-width="1.035" stroke-linecap="round" stroke-linejoin="round"/>
<path id="Vector_75" d="M58.1638 34.1663L65.5445 28.4946" stroke="white" stroke-width="1.035" stroke-linecap="round" stroke-linejoin="round"/>
<path id="Vector_76" d="M58.5026 27.6343L55.417 22.1323" stroke="white" stroke-width="1.035" stroke-linecap="round" stroke-linejoin="round"/>
<path id="Vector_77" d="M45.6292 71.6386C45.6292 71.6386 51.8117 66.997 58.1638 62.3555" stroke="white" stroke-width="1.035" stroke-linecap="round" stroke-linejoin="round"/>
<path id="Vector_78" d="M48.7259 61.9819C48.7259 61.9819 43.5719 51.8724 37.7397 45.1704" stroke="white" stroke-width="1.035" stroke-linecap="round" stroke-linejoin="round"/>
<path id="Vector_79" d="M48.7261 113.412C52.249 106.899 56.7 100.935 61.9389 95.7065" stroke="white" stroke-width="1.035" stroke-linecap="round" stroke-linejoin="round"/>
<path id="Vector_80" d="M47.539 120.284C45.6598 115.864 43.4179 111.608 40.8366 107.559C37.2423 102.238 36.7224 101.548 36.7224 101.548" stroke="white" stroke-width="1.035" stroke-linecap="round" stroke-linejoin="round"/>
<path id="Vector_81" d="M41.6167 153.556C43.1808 149.647 45.0398 145.862 47.1776 142.235C49.3168 138.89 51.7287 135.729 54.3887 132.782" stroke="white" stroke-width="1.035" stroke-linecap="round" stroke-linejoin="round"/>
<path id="Vector_82" d="M48.4208 178.914C48.0634 175.2 48.6992 171.456 50.2632 168.069C52.8402 163.077 55.7563 156.556 56.9656 153.975" stroke="white" stroke-width="1.035" stroke-linecap="round" stroke-linejoin="round"/>
<path id="Vector_83" d="M13.8234 88.0084C13.8234 88.0084 13.2921 84.9405 16.8412 79.8914C20.3902 74.8423 22.7299 71.9102 22.7299 71.9102C22.7299 71.9102 26.1207 78.6121 22.8542 83.6046C20.4403 87.1397 17.7331 90.4648 14.7615 93.5443L13.8234 88.0084Z" fill="#1DBD9C"/>
<path id="Vector_84" d="M23.3629 106.122C23.3629 106.122 22.843 103.042 26.392 98.0046C29.941 92.9668 32.2694 90.0234 32.2694 90.0234C32.2694 90.0234 35.6602 96.7141 32.3937 101.707C29.9855 105.24 27.286 108.564 24.3236 111.646L23.3629 106.122V106.122Z" fill="#1DBD9C"/>
<path id="Vector_85" d="M14.999 93.2044C14.999 93.2044 14.14 90.2043 8.75991 87.193C3.37984 84.1816 0.000347677 82.5288 0.000347677 82.5288C0.000347677 82.5288 -0.135279 90.0232 4.95092 93.1138C8.65001 95.25 12.5216 97.0715 16.5248 98.5591L14.999 93.2044Z" fill="#1DBD9C"/>
<path id="Vector_86" d="M26.4373 114.556C26.4373 114.556 25.307 111.658 19.6557 109.235C14.0044 106.812 10.4553 105.556 10.4553 105.556C10.4553 105.556 11.1109 113.016 16.4909 115.552C20.3951 117.288 24.4365 118.697 28.5735 119.763L26.4373 114.556V114.556Z" fill="#1DBD9C"/>
<path id="Vector_87" d="M29.2969 139.495C29.2969 139.495 28.7657 136.427 23.7247 132.872C18.6837 129.318 15.5077 127.336 15.5077 127.336C15.5077 127.336 14.5809 134.774 19.3054 138.386C22.7614 140.902 26.4211 143.125 30.2463 145.031L29.2969 139.495Z" fill="#1DBD9C"/>
<path id="Vector_88" d="M30.4046 145.518C30.4046 145.518 29.4552 142.529 32.247 137.05C35.0387 131.571 36.9375 128.311 36.9375 128.311C36.9375 128.311 41.2213 134.458 38.7234 139.869C36.836 143.707 34.6319 147.38 32.1339 150.85L30.4046 145.518Z" fill="#1DBD9C"/>
<path id="Vector_89" d="M39.0054 170.299C39.0054 170.299 39.3558 167.198 44.182 163.36C49.0083 159.522 52.0939 157.371 52.0939 157.371C52.0939 157.371 53.4502 164.741 48.9292 168.613C45.6215 171.321 42.0941 173.748 38.3838 175.869L39.0054 170.299Z" fill="#1DBD9C"/>
<path id="Vector_90" d="M37.7286 162.658C37.7286 162.658 37.1973 159.579 32.1677 156.024C27.138 152.469 23.9393 150.454 23.9393 150.454C23.9393 150.454 23.0125 157.892 27.7483 161.503C31.2024 164.022 34.8623 166.245 38.6893 168.149L37.7286 162.658V162.658Z" fill="#1DBD9C"/>
<path id="Vector_91" d="M37.6608 179.356C37.6608 179.356 37.932 176.243 33.9535 171.534C29.975 166.824 27.398 164.084 27.398 164.084C27.398 164.084 24.6175 171.047 28.2909 175.745C30.9964 179.054 33.9717 182.133 37.1861 184.949L37.6608 179.356V179.356Z" fill="#1DBD9C"/>
<path id="Vector_92" d="M13.292 87.2949C14.0693 90.452 15.0125 93.5658 16.1177 96.6233C19.3389 105.114 24.5608 110.05 27.6238 117.691C30.6868 125.333 27.6238 136.393 30.6529 146.356C33.682 156.318 38.6665 161.299 38.7004 168.296C38.7343 175.292 35.9877 194.741 35.9877 194.741" stroke="white" stroke-width="1.035" stroke-linecap="round" stroke-linejoin="round"/>
<path id="Vector_93" d="M15.3943 95.2309L10.1499 92.48" stroke="white" stroke-width="1.035" stroke-linecap="round" stroke-linejoin="round"/>
<path id="Vector_94" d="M14.4678 91.1777L15.8128 87.3853" stroke="white" stroke-width="1.035" stroke-linecap="round" stroke-linejoin="round"/>
<path id="Vector_95" d="M27.3076 117.374C27.3076 117.374 22.9334 115.11 18.4463 112.914" stroke="white" stroke-width="1.035" stroke-linecap="round" stroke-linejoin="round"/>
<path id="Vector_96" d="M24.3235 111.646C25.612 107.572 27.3085 103.639 29.3871 99.9062" stroke="white" stroke-width="1.035" stroke-linecap="round" stroke-linejoin="round"/>
<path id="Vector_97" d="M29.8958 143.899C26.9913 140.199 23.5645 136.942 19.7234 134.231" stroke="white" stroke-width="1.035" stroke-linecap="round" stroke-linejoin="round"/>
<path id="Vector_98" d="M31.3992 148.077C32.0932 145.101 33.0346 142.189 34.2135 139.371C35.8976 135.647 36.1463 135.148 36.1463 135.148" stroke="white" stroke-width="1.035" stroke-linecap="round" stroke-linejoin="round"/>
<path id="Vector_99" d="M38.4973 173.605C40.2055 171.488 42.0966 169.525 44.1486 167.741C45.4536 166.782 46.6784 165.718 47.8107 164.56" stroke="white" stroke-width="1.035" stroke-linecap="round" stroke-linejoin="round"/>
<path id="Vector_100" d="M38.7007 168.296C37.3014 166.027 35.7294 163.87 33.9988 161.843C32.296 159.974 30.4396 158.25 28.4492 156.692" stroke="white" stroke-width="1.035" stroke-linecap="round" stroke-linejoin="round"/>
<path id="Vector_101" d="M37.186 184.949C37.0085 182.578 36.205 180.296 34.8576 178.338C32.6988 175.496 30.1557 171.715 29.1272 170.232" stroke="white" stroke-width="1.035" stroke-linecap="round" stroke-linejoin="round"/>
<path id="Vector_102" d="M22.0063 191.356H66.7536V225.103C66.7536 226.004 66.3963 226.868 65.7604 227.505C65.1245 228.142 64.2621 228.5 63.3628 228.5H25.4423C24.5431 228.5 23.6806 228.142 23.0447 227.505C22.4088 226.868 22.0516 226.004 22.0516 225.103V191.356H22.0063Z" stroke="white"/>
<path id="Vector_103" d="M66.4036 197.209H22.0068C21.5458 197.209 21.0894 197.117 20.6637 196.94C20.2379 196.763 19.8513 196.503 19.5258 196.176C19.2004 195.849 18.9425 195.461 18.767 195.034C18.5915 194.607 18.5018 194.15 18.5029 193.688C18.5032 192.758 18.8725 191.865 19.5295 191.207C20.1866 190.549 21.0776 190.179 22.0068 190.179H66.4036C67.3328 190.179 68.2238 190.549 68.8809 191.207C69.5379 191.865 69.9071 192.758 69.9074 193.688C69.9097 194.15 69.8205 194.608 69.6451 195.035C69.4698 195.462 69.2116 195.85 68.8857 196.177C68.5605 196.504 68.1737 196.764 67.7477 196.941C67.3217 197.119 66.8649 197.21 66.4036 197.209V197.209Z" fill="white"/>
</g>
</svg>
