<svg width="182" height="117" viewBox="0 0 182 117" fill="none" xmlns="http://www.w3.org/2000/svg">
<g id="techBox">
<g id="Group 77">
<g id="angular-icon-1_1" filter="url(#filter0_d_347_459)">
<path id="Vector" d="M82.7171 33.6525C82.3643 32.5377 82.5171 31.3244 83.135 30.3318L99.4004 4.20557C100.237 2.86143 101.788 2.1374 103.356 2.35899L139.294 7.43855C140.862 7.66014 142.151 8.78564 142.583 10.309L150.97 39.9197C151.289 41.0447 151.099 42.2528 150.452 43.2262L134.599 67.0435C133.746 68.3249 132.234 69.0032 130.709 68.7878L94.6015 63.6842C93.0773 63.4688 91.812 62.3979 91.3476 60.9302L82.7171 33.6525Z" fill="url(#paint0_linear_347_459)"/>
</g>
<g id="nodejs-seeklogo.com 1" clip-path="url(#clip0_347_459)">
<g id="Group">
<path id="Vector_2" d="M126.798 55.3441C126.272 55.5814 125.717 55.6621 125.15 55.6212L119.231 54.9436C118.354 54.8727 118.642 54.5736 118.82 54.4083C119.624 53.6642 119.768 53.5147 120.496 52.5084C120.569 52.3905 120.725 52.3624 120.862 52.3854L125.409 52.9197C125.581 52.9268 125.756 52.8477 125.83 52.7298L136.155 38.2839C136.264 38.1502 136.271 37.9778 136.191 37.8017L128.87 21.5693C128.79 21.3933 128.656 21.2841 128.484 21.2769L110.837 19.4905C110.665 19.4833 110.49 19.5624 110.416 19.6803L100.075 34.091C99.9662 34.2247 99.9755 34.4324 100.039 34.5732L107.361 50.8056C107.424 50.9464 107.574 51.0908 107.746 51.098L112.569 51.5919C115.115 51.7149 115.857 49.8972 115.301 48.6648L108.075 32.6437C107.98 32.4324 108.06 32.1421 108.305 32.0313L110.094 31.2245C110.304 31.1296 110.594 31.2107 110.705 31.4572L117.932 47.4783C119.186 50.26 118.409 52.5599 115.778 53.7464C114.971 54.1103 114.34 54.395 112.154 54.3216L107.519 53.87C106.369 53.7531 105.363 53.0203 104.886 51.964L97.5647 35.7316C97.0882 34.6753 97.2047 33.4363 97.8784 32.4968L108.204 18.0509C108.859 17.1624 110.051 16.6246 111.15 16.722L128.813 18.5437C129.964 18.6606 130.969 19.3934 131.446 20.4497L138.767 36.6821C139.244 37.7384 139.127 38.9774 138.454 39.9169L128.128 54.3628C127.767 54.7797 127.289 55.1227 126.798 55.3441ZM126.077 42.2363C119.939 45.0048 117.406 42.7574 116.326 40.3631C116.231 40.1518 116.311 39.8614 116.557 39.7507L118.38 38.9281C118.591 38.8331 118.83 38.8949 118.925 39.1062C120.047 40.8458 121.267 41.3974 124.985 39.7205C127.931 38.3917 128.892 37.1531 128.177 35.5686C127.764 34.6531 127.112 34.1423 122.311 35.757C118.313 37.094 115.547 37.3247 114.165 34.2613C112.879 31.4092 114.501 28.6433 118.5 26.8399C122.989 24.8149 125.898 25.3676 127.703 28.6213C127.75 28.7269 127.763 28.8484 127.741 28.9857C127.702 29.0877 127.629 29.2056 127.523 29.2531L125.7 30.0757C125.524 30.1548 125.285 30.093 125.171 29.9328C123.876 28.186 122.503 28.0426 119.627 29.3399C116.401 30.7953 116.523 32.0961 116.904 32.9411C117.365 33.9623 117.964 34.0735 122.567 32.6752C127.135 31.2928 129.535 31.1851 130.9 34.2132C132.263 37.3276 130.532 40.2272 126.077 42.2363Z" fill="white"/>
</g>
</g>
</g>
<g id="reactjs-icon_1">
<g id="Group_7">
<g id="Group_8">
<g id="Group 75">
<path id="Path_17" d="M97.4938 50.1562L68.7365 66.8954L48.1826 31.5859L97.4938 50.1562V50.1562Z" fill="#111827" stroke="white" stroke-width="1.118"/>
<path id="Path_18" d="M131.935 49.79L154.453 57.8104" stroke="#231F20" stroke-width="1.118"/>
<path id="Rectangle_58" d="M132.437 49.7876H49.8115V115.823H132.437V49.7876Z" fill="#111827" stroke="white" stroke-width="1.118"/>
<path id="Rectangle_59" d="M162.348 49.7876H132.438V115.823H162.348V49.7876Z" fill="#111827" stroke="white" stroke-width="1.118"/>
<path id="Rectangle_60" d="M95.9965 49.79H81.2002V83.4098H95.9965V49.79Z" stroke="white" stroke-width="1.118"/>
<path id="Path_19" d="M132.438 49.7876V57.3694L114.748 76.5128H49.8115V57.3694L132.438 49.7876Z" fill="white"/>
<path id="Path_20" d="M114.751 68.9378H32.1191L49.8089 49.79H132.44L114.751 68.9378Z" fill="#111827" stroke="white" stroke-width="1.118"/>
<path id="Path_21" d="M162.347 57.5967V76.5128H150.267L132.577 57.3695L132.855 50.3438L162.132 57.3695L162.347 57.5967Z" fill="white"/>
<path id="Path_22" d="M150.266 68.9378H179.826L162.135 49.79H132.575L150.266 68.9378Z" fill="#111827" stroke="white" stroke-width="1.118"/>
<path id="Path_25" d="M5.85602 116.644H49.4492C51.0644 116.644 52.4885 115.549 52.9531 113.95L65.3916 71.9331C66.0981 69.5042 64.4456 66.2061 61.9929 66.2061L18.2935 66.301C16.6783 66.301 15.2542 67.3962 14.7885 68.9956L2.35105 111.769C2.18625 112.334 2.1517 112.929 2.24998 113.508C2.34826 114.088 2.57682 114.638 2.91846 115.117C3.25151 115.587 3.69173 115.97 4.2026 116.236C4.71346 116.501 5.28026 116.641 5.85602 116.644V116.644Z" fill="#009AB6"/>
<path id="Path_26" d="M3.66039 116.644H47.2536C48.8688 116.644 50.2929 115.549 50.7586 113.949L63.196 71.1756C63.3608 70.611 63.3954 70.0164 63.2971 69.4365C63.1988 68.8566 62.9703 68.3066 62.6286 67.8278C62.2956 67.3581 61.8553 66.9746 61.3445 66.709C60.8336 66.4435 60.2668 66.3035 59.6911 66.3008H16.0978C14.4827 66.3008 13.0585 67.396 12.5929 68.9954L0.155425 111.769C-0.0092181 112.334 -0.0435994 112.929 0.0548776 113.508C0.153355 114.088 0.382147 114.638 0.723972 115.117C1.05665 115.587 1.4966 115.97 2.00732 116.236C2.51803 116.501 3.08476 116.641 3.66039 116.644V116.644Z" fill="#00D8FF"/>
<path id="Vector_119" d="M30.7031 95.2705C28.8257 95.2705 27.3032 93.6971 27.3032 91.7553C27.3032 89.8135 28.8257 88.2402 30.7031 88.2402C32.5793 88.2402 34.1018 89.8135 34.1018 91.7553C34.1018 93.6971 32.5793 95.2705 30.7031 95.2705Z" fill="white"/>
<path id="Vector_120" fill-rule="evenodd" clip-rule="evenodd" d="M30.702 84.6079C26.1391 84.6079 21.8995 85.285 18.7031 86.4231C14.8523 87.7953 12.4844 89.8738 12.4844 91.7557C12.4844 93.7167 14.9936 95.9252 19.1292 97.3426C22.2567 98.4141 26.3708 98.9724 30.702 98.9724C35.1439 98.9724 39.3496 98.448 42.511 97.3302C46.5121 95.9162 48.9208 93.6794 48.9208 91.7557C48.9208 89.8885 46.6602 87.8258 42.8636 86.457C39.6548 85.2996 35.3112 84.6079 30.7031 84.6079H30.702Z" stroke="white" stroke-width="2"/>
<path id="Vector_121" fill-rule="evenodd" clip-rule="evenodd" d="M36.718 88.202C34.4383 84.1139 31.7528 80.6541 29.2029 78.3586C26.1309 75.5928 23.2068 74.51 21.6301 75.4504C19.9878 76.4303 19.3922 79.7816 20.2715 84.1953C20.935 87.5318 22.523 91.4979 24.6864 95.3781C26.9051 99.3577 29.4459 102.864 31.9619 105.138C35.1447 108.016 38.2213 109.057 39.8331 108.096C41.3962 107.163 41.9941 104.107 41.2448 100.021C40.6107 96.5683 39.0204 92.3309 36.7192 88.202H36.718V88.202Z" stroke="white" stroke-width="2"/>
<path id="Vector_122" fill-rule="evenodd" clip-rule="evenodd" d="M36.7125 95.3893C38.999 91.3046 40.5554 87.17 41.2053 83.7397C41.9874 79.6052 41.4336 76.4438 39.8592 75.5012C38.218 74.5178 35.1132 75.6583 31.8546 78.6501C29.3918 80.9118 26.8622 84.315 24.6921 88.1918C22.4678 92.167 20.7995 96.1952 20.1507 99.5849C19.3301 103.874 19.9948 107.151 21.6043 108.115C23.1663 109.051 26.0247 108.06 29.073 105.347C31.6478 103.055 34.4034 99.5137 36.7125 95.3893V95.3893Z" stroke="white" stroke-width="2"/>
</g>
</g>
</g>
</g>
</g>
<defs>
<filter id="filter0_d_347_459" x="82.5308" y="2.31934" width="72.5908" height="70.5078" filterUnits="userSpaceOnUse" color-interpolation-filters="sRGB">
<feFlood flood-opacity="0" result="BackgroundImageFix"/>
<feColorMatrix in="SourceAlpha" type="matrix" values="0 0 0 0 0 0 0 0 0 0 0 0 0 0 0 0 0 0 127 0" result="hardAlpha"/>
<feOffset dx="4" dy="4"/>
<feColorMatrix type="matrix" values="0 0 0 0 0.243137 0 0 0 0 0.517647 0 0 0 0 0.239216 0 0 0 1 0"/>
<feBlend mode="normal" in2="BackgroundImageFix" result="effect1_dropShadow_347_459"/>
<feBlend mode="normal" in="SourceGraphic" in2="effect1_dropShadow_347_459" result="shape"/>
</filter>
<linearGradient id="paint0_linear_347_459" x1="139.426" y1="11.8366" x2="103.889" y2="33.0901" gradientUnits="userSpaceOnUse">
<stop stop-color="#70B255"/>
<stop offset="1" stop-color="#3F853E"/>
</linearGradient>
<clipPath id="clip0_347_459">
<rect width="37.1682" height="42.1239" fill="white" transform="translate(92.5698 24.6577) rotate(-24.2775)"/>
</clipPath>
</defs>
</svg>
